HIERARCHY
ROOT Hips
{
  OFFSET 5.84602e-005 68.8428 3.50346
  CHANNELS 6 Xposition Yposition Zposition Zrotation Xrotation Yrotation
  JOINT Spine
  {
    OFFSET 0 8.597 -4.6522
    CHANNELS 3 Zrotation Xrotation Yrotation
    JOINT Spine1
    {
      OFFSET 0 7.8454 0.4098
      CHANNELS 3 Zrotation Xrotation Yrotation
      JOINT Spine2
      {
        OFFSET 0 9.7078 -2.1609
        CHANNELS 3 Zrotation Xrotation Yrotation
        JOINT Neck
        {
          OFFSET 0 21.8761 -0.4549
          CHANNELS 3 Zrotation Xrotation Yrotation
          JOINT Head
          {
            OFFSET 0 12.3537 3.3602
            CHANNELS 3 Zrotation Xrotation Yrotation
            End Site
            {
              OFFSET 0.0001 18.9506 0.5657
            }
          }
        }
        JOINT LeftShoulder
        {
          OFFSET 2.2086 21.1115 7.2329
          CHANNELS 3 Zrotation Xrotation Yrotation
          JOINT LeftArm
          {
            OFFSET 13.1193 3.0282 -4.8998
            CHANNELS 3 Zrotation Xrotation Yrotation
            JOINT LeftForeArm
            {
              OFFSET 27.4081 -0.0973053 -0.2375
              CHANNELS 3 Zrotation Xrotation Yrotation
              JOINT LeftHand
              {
                OFFSET 22.8641 0.0662994 -0.1369
                CHANNELS 3 Zrotation Xrotation Yrotation
                JOINT LeftHandIndex1
                {
                  OFFSET 8.8614 0.775009 2.4612
                  CHANNELS 3 Zrotation Xrotation Yrotation
                  JOINT LeftHandIndex2
                  {
                    OFFSET 3.3146 -0.808304 0.5841
                    CHANNELS 3 Zrotation Xrotation Yrotation
                    JOINT LeftHandIndex3
                    {
                      OFFSET 2.2628 -0.552002 0.3989
                      CHANNELS 3 Zrotation Xrotation Yrotation
                      End Site
                      {
                        OFFSET 1.6102 -0.4807 0.2612
                      }
                    }
                  }
                }
                JOINT LeftHandMiddle1
                {
                  OFFSET 8.9937 0.895004 0.2143
                  CHANNELS 3 Zrotation Xrotation Yrotation
                  JOINT LeftHandMiddle2
                  {
                    OFFSET 4.0984 0.0113983 -0.0242
                    CHANNELS 3 Zrotation Xrotation Yrotation
                    JOINT LeftHandMiddle3
                    {
                      OFFSET 2.2716 0.00689697 -0.0138001
                      CHANNELS 3 Zrotation Xrotation Yrotation
                      End Site
                      {
                        OFFSET 2.0404 -0.1441 0.0027
                      }
                    }
                  }
                }
                JOINT LeftHandRing1
                {
                  OFFSET 8.5234 0.597198 -2.0164
                  CHANNELS 3 Zrotation Xrotation Yrotation
                  JOINT LeftHandRing2
                  {
                    OFFSET 3.7188 -0.188293 -0.2328
                    CHANNELS 3 Zrotation Xrotation Yrotation
                    JOINT LeftHandRing3
                    {
                      OFFSET 2.1191 -0.106598 -0.1332
                      CHANNELS 3 Zrotation Xrotation Yrotation
                      End Site
                      {
                        OFFSET 1.8737 -0.2304 -0.0886
                      }
                    }
                  }
                }
                JOINT LeftHandPinky1
                {
                  OFFSET 7.9094 -0.601089 -3.4825
                  CHANNELS 3 Zrotation Xrotation Yrotation
                  JOINT LeftHandPinky2
                  {
                    OFFSET 2.2874 -0.477005 -0.6314
                    CHANNELS 3 Zrotation Xrotation Yrotation
                    JOINT LeftHandPinky3
                    {
                      OFFSET 1.6774 -0.349396 -0.4633
                      CHANNELS 3 Zrotation Xrotation Yrotation
                      End Site
                      {
                        OFFSET 1.4888 -0.4091 -0.3416
                      }
                    }
                  }
                }
                JOINT LeftHandThumb1
                {
                  OFFSET 1.833 -1.3875 1.3896
                  CHANNELS 3 Zrotation Xrotation Yrotation
                  JOINT LeftHandThumb2
                  {
                    OFFSET 3.4129 -1.121 2.5732
                    CHANNELS 3 Zrotation Xrotation Yrotation
                    JOINT LeftHandThumb3
                    {
                      OFFSET 2.2474 -0.804199 1.6192
                      CHANNELS 3 Zrotation Xrotation Yrotation
                      End Site
                      {
                        OFFSET 1.6527 -0.5689 1.1317
                      }
                    }
                  }
                }
              }
            }
          }
        }
        JOINT RightShoulder
        {
          OFFSET -2.2086 21.1115 7.2329
          CHANNELS 3 Zrotation Xrotation Yrotation
          JOINT RightArm
          {
            OFFSET -13.1216 3.0287 -4.9007
            CHANNELS 3 Zrotation Xrotation Yrotation
            JOINT RightForeArm
            {
              OFFSET -27.4081 -0.0973053 -0.2375
              CHANNELS 3 Zrotation Xrotation Yrotation
              JOINT RightHand
              {
                OFFSET -22.8641 0.0664063 -0.1369
                CHANNELS 3 Zrotation Xrotation Yrotation
                JOINT RightHandIndex1
                {
                  OFFSET -8.8614 0.774994 2.4612
                  CHANNELS 3 Zrotation Xrotation Yrotation
                  JOINT RightHandIndex2
                  {
                    OFFSET -3.3146 -0.808304 0.5841
                    CHANNELS 3 Zrotation Xrotation Yrotation
                    JOINT RightHandIndex3
                    {
                      OFFSET -2.2628 -0.552002 0.3989
                      CHANNELS 3 Zrotation Xrotation Yrotation
                      End Site
                      {
                        OFFSET -1.6102 -0.4807 0.2612
                      }
                    }
                  }
                }
                JOINT RightHandMiddle1
                {
                  OFFSET -8.9937 0.894989 0.2143
                  CHANNELS 3 Zrotation Xrotation Yrotation
                  JOINT RightHandMiddle2
                  {
                    OFFSET -4.0984 0.0113983 -0.0242
                    CHANNELS 3 Zrotation Xrotation Yrotation
                    JOINT RightHandMiddle3
                    {
                      OFFSET -2.2716 0.00691223 -0.0138001
                      CHANNELS 3 Zrotation Xrotation Yrotation
                      End Site
                      {
                        OFFSET -2.0404 -0.1441 0.0027
                      }
                    }
                  }
                }
                JOINT RightHandRing1
                {
                  OFFSET -8.5234 0.597198 -2.0164
                  CHANNELS 3 Zrotation Xrotation Yrotation
                  JOINT RightHandRing2
                  {
                    OFFSET -3.7188 -0.188309 -0.2328
                    CHANNELS 3 Zrotation Xrotation Yrotation
                    JOINT RightHandRing3
                    {
                      OFFSET -2.1191 -0.106598 -0.1332
                      CHANNELS 3 Zrotation Xrotation Yrotation
                      End Site
                      {
                        OFFSET -1.8737 -0.2304 -0.0886
                      }
                    }
                  }
                }
                JOINT RightHandPinky1
                {
                  OFFSET -7.9094 -0.601105 -3.4825
                  CHANNELS 3 Zrotation Xrotation Yrotation
                  JOINT RightHandPinky2
                  {
                    OFFSET -2.2874 -0.477005 -0.6314
                    CHANNELS 3 Zrotation Xrotation Yrotation
                    JOINT RightHandPinky3
                    {
                      OFFSET -1.6774 -0.349396 -0.4633
                      CHANNELS 3 Zrotation Xrotation Yrotation
                      End Site
                      {
                        OFFSET -1.4888 -0.4091 -0.3416
                      }
                    }
                  }
                }
                JOINT RightHandThumb1
                {
                  OFFSET -1.833 -1.38751 1.3896
                  CHANNELS 3 Zrotation Xrotation Yrotation
                  JOINT RightHandThumb2
                  {
                    OFFSET -3.41299 -1.12099 2.5732
                    CHANNELS 3 Zrotation Xrotation Yrotation
                    JOINT RightHandThumb3
                    {
                      OFFSET -2.24741 -0.804108 1.6192
                      CHANNELS 3 Zrotation Xrotation Yrotation
                      End Site
                      {
                        OFFSET -1.6527 -0.5689 1.1317
                      }
                    }
                  }
                }
              }
            }
          }
        }
      }
    }
  }
  JOINT RightUpLeg
  {
    OFFSET -9.1966 3.8861 -0.7581
    CHANNELS 3 Zrotation Xrotation Yrotation
    JOINT RightLeg
    {
      OFFSET -0.7359 -41.0265 0
      CHANNELS 3 Zrotation Xrotation Yrotation
      JOINT RightFoot
      {
        OFFSET 0 -40.2855 0
        CHANNELS 3 Zrotation Xrotation Yrotation
        JOINT RightToeBase
        {
          OFFSET 0 -5.6122 11.7359
          CHANNELS 3 Zrotation Xrotation Yrotation
          End Site
          {
            OFFSET 0 0 7.8731
          }
        }
      }
    }
  }
  JOINT LeftUpLeg
  {
    OFFSET 9.1965 3.8864 -0.7581
    CHANNELS 3 Zrotation Xrotation Yrotation
    JOINT LeftLeg
    {
      OFFSET 0.7359 -41.0268 0
      CHANNELS 3 Zrotation Xrotation Yrotation
      JOINT LeftFoot
      {
        OFFSET 0 -40.2855 0
        CHANNELS 3 Zrotation Xrotation Yrotation
        JOINT LeftToeBase
        {
          OFFSET 0 -5.6122 11.7359
          CHANNELS 3 Zrotation Xrotation Yrotation
          End Site
          {
            OFFSET 0 0 7.8731
          }
        }
      }
    }
  }
}
MOTION
Frames:	4
Frame Time:	0.0333333
5.84602e-005 68.8428 3.50346 0 0 -0 0 0 -0 0 0 -0 0 0 -0 0 0 -0 0 0 -0 0 0 -0 0 0 -0 0 0 -0 0 0 -0 0 0 -0 0 0 -0 0 0 -0 0 0 -0 -0.0146107 -8.87603e-005 -2.63497e-007 2.99804e-018 -2.42657e-020 -1.42182e-022 0 0 -0 -0.0187562 -0.001176 5.858e-005 5.06224e-018 3.88251e-019 1.21329e-020 0 0 -0 -0.012269 -0.00324817 0.000675346 -1.74678e-018 3.88251e-019 -0 0 0 -0 0 0 -0 0 0 -0 0 0 -0 0 0 -0 0 0 -0 0 0 -0 0 0 -0 0 0 -0 0 0 -0 0 0 -0 0.0149955 -9.10982e-005 2.64101e-007 -9.69331e-018 1.21329e-020 -4.7394e-023 0 0 -0 0.0189956 -0.00119102 -5.96516e-005 -5.41541e-019 0 2.42657e-020 0 0 -0 0.0122698 -0.00324857 -0.000673756 -2.00796e-019 0 -1.94126e-019 0 0 -0 0 0 -0 0 0 -0 3.39842 1.33031 -0.0637918 -5.65207e-008 0.834868 -0.000436188 -3.39935 -2.16518 -0.0642563 -8.89002e-024 -1.18485e-023 -1.48106e-024 -3.39844 1.35642 0.0640283 -3.18788e-007 0.782166 -0.000588827 3.39931 -2.13858 0.0634662 1.1399e-023 0 -0 
-2.56913 24.2446 27.3724 -49.9527 -8.55747 97.0937 0.096773 -3.19612 0.0103174 0.194558 -6.39227 0.026088 0.194567 -6.39226 0.0260514 0.000186196 -5.78404 -4.47092e-005 4.78066e-006 12.4405 1.19874e-005 0.737128 -21.4128 7.0401 -31.336 0.994118 -22.1901 27.9158 10.3792 -66.4243 -8.50922 -37.4838 12.7166 -3.18055e-015 -1.27222e-014 9.54166e-015 -6.36111e-015 -9.54166e-015 3.18055e-015 0 0 -6.36111e-015 -3.18055e-015 -1.27222e-014 9.54166e-015 -0.0145832 -9.05548e-005 6.53927e-007 1.59028e-014 -1.27222e-014 -3.18055e-015 -3.18055e-015 -1.27222e-014 9.54166e-015 -0.0188151 -0.00118057 5.97064e-005 1.27222e-014 9.54166e-015 6.36111e-015 -3.18055e-015 -1.27222e-014 9.54166e-015 -0.0123237 -0.00326079 0.00067626 6.36111e-015 -6.36111e-015 -1.59028e-014 -3.18055e-015 -1.27222e-014 9.54166e-015 -6.36111e-015 -9.54166e-015 3.18055e-015 0 0 -6.36111e-015 -7.28838 -2.21459 -24.0865 33.2805 6.98099 25.769 1.81879 -4.01523 74.8499 -21.0065 -9.37326 -16.4546 -7.06225e-031 1.27222e-014 3.18055e-015 -1.59028e-015 1.59028e-014 -3.18055e-015 3.18055e-015 9.54166e-015 3.18055e-015 -7.06225e-031 1.27222e-014 3.18055e-015 0.0150038 -9.12549e-005 9.18482e-007 -2.37784e-007 1.91825e-007 2.24557e-007 -7.06225e-031 1.27222e-014 3.18055e-015 0.0190434 -0.00119473 -6.20681e-005 -1.59028e-015 -6.36111e-015 -6.36111e-015 -7.06225e-031 1.27222e-014 3.18055e-015 0.0123191 -0.00326071 -0.00067761 3.18055e-015 6.36111e-015 3.18055e-015 -7.06225e-031 1.27222e-014 3.18055e-015 -1.59028e-015 1.59028e-014 -3.18055e-015 3.18055e-015 9.54166e-015 3.18055e-015 0.378844 -0.333408 -2.20908 -5.25011 63.4769 3.50324 -5.40869 8.68224 1.52767 -3.18055e-015 -4.37326e-015 -1.59028e-015 1.20135 -0.522293 1.44997 1.24021 46.6748 -0.484151 8.53072 22.0442 -0.955186 7.95139e-016 -3.04389e-015 -9.93923e-017 
-0.253651 -6.95945 54.3189 -90.3963 -89.7304 89.3514 0.16403 -5.66499 0.050734 0.33561 -11.3298 0.118736 0.33561 -11.3298 0.118736 4.9123e-006 -10.0121 -7.43423e-007 4.56757e-008 21.997 5.41999e-008 5.8532 -37.4779 14.7632 -55.2161 1.47182 -39.4572 50.8164 -16.6088 -108.16 8.10586 -61.8467 40.6379 -4.77083e-015 1.11319e-014 7.95139e-016 -3.18055e-015 1.09332e-014 1.59028e-015 -6.36111e-015 1.33186e-014 7.95139e-016 -4.77083e-015 1.11319e-014 7.95139e-016 -0.0146252 -9.13241e-005 -2.21248e-006 7.95139e-015 8.74653e-015 -7.95139e-016 -4.77083e-015 1.11319e-014 7.95139e-016 -0.0187555 -0.00117894 6.36048e-005 3.18055e-015 9.34288e-015 1.19271e-015 -4.77083e-015 1.11319e-014 7.95139e-016 -0.0122747 -0.00325339 0.000675006 3.18055e-015 6.55989e-015 7.95139e-016 -4.77083e-015 1.11319e-014 7.95139e-016 -3.18055e-015 1.09332e-014 1.59028e-015 -6.36111e-015 1.33186e-014 7.95139e-016 -14.1628 -3.25743 -42.8881 55.232 9.60663 46.2804 -2.07391 17.5683 128.957 -41.0553 -15.1626 -30.0226 7.72434e-032 2.78299e-015 -1.59028e-015 1.59028e-015 2.5842e-015 1.59028e-015 7.95139e-016 2.5842e-015 1.59028e-015 7.72434e-032 2.78299e-015 -1.59028e-015 0.0150157 -9.58243e-005 2.49812e-006 -7.95139e-016 -3.77691e-015 1.59028e-015 7.72434e-032 2.78299e-015 -1.59028e-015 0.0189807 -0.0011914 -6.00715e-005 -7.95139e-016 1.39149e-015 1.59028e-015 7.72434e-032 2.78299e-015 -1.59028e-015 0.0122858 -0.0032497 -0.00067187 1.59028e-015 -9.93923e-016 -1.59028e-015 7.72434e-032 2.78299e-015 -1.59028e-015 1.59028e-015 2.5842e-015 1.59028e-015 7.95139e-016 2.5842e-015 1.59028e-015 -1.89779 -0.972554 -5.11116 -167.562 68.4484 163.597 -6.59506 18.0524 0.334588 -8.04861e-007 -2.97498e-008 -2.80264e-007 4.65256 -1.98763 2.83364 20.8845 80.8371 -19.8745 11.4564 42.0988 0.532861 -3.02098e-006 -2.92646e-006 3.84195e-007 
1.07841 -11.1957 57.5681 117.708 -77.688 -63.1071 0.17275 -5.95217 0.0584523 0.354522 -11.9041 0.136168 0.354521 -11.9041 0.13617 -4.59404e-005 -9.57265 5.92715e-006 5.68511e-007 22.9016 -1.38518e-006 7.30944 -39.9587 16.3644 -58.5996 1.49922 -41.9196 52.2503 -22.3098 -112.936 14.8791 -64.2008 48.6248 -7.95139e-016 -1.64991e-014 -7.95139e-016 -7.95139e-016 -1.32192e-014 -1.59028e-015 -2.38542e-015 -1.3418e-014 -0 -7.95139e-016 -1.64991e-014 -7.95139e-016 -0.0146148 -8.67318e-005 2.6317e-006 -7.95139e-016 -1.28216e-014 -1.59028e-015 -7.95139e-016 -1.64991e-014 -7.95139e-016 -0.0187453 -0.00117548 6.76979e-005 0 6.4605e-016 -0 -7.95139e-016 -1.64991e-014 -7.95139e-016 -0.0122723 -0.0032495 0.000681526 7.95139e-016 2.23633e-015 -7.95139e-016 -7.95139e-016 -1.64991e-014 -7.95139e-016 -7.95139e-016 -1.32192e-014 -1.59028e-015 -2.38542e-015 -1.3418e-014 -0 -15.3544 -3.66037 -45.6592 58.1819 9.6583 49.2165 -4.93911 21.4999 136.751 -44.2692 -15.8491 -32.1396 -6.36111e-015 6.75868e-015 1.59028e-015 3.31043e-032 1.19271e-015 -1.59028e-015 3.18055e-015 7.95139e-016 -1.59028e-015 -6.36111e-015 6.75868e-015 1.59028e-015 0.0149969 -8.87772e-005 2.41664e-006 3.18055e-015 1.63003e-014 -4.77083e-015 -6.36111e-015 6.75868e-015 1.59028e-015 0.0190117 -0.00118539 -4.8655e-005 1.27222e-014 -3.18055e-015 -0 -6.36111e-015 6.75868e-015 1.59028e-015 0.012275 -0.00324952 -0.000678011 -1.98626e-031 -7.15625e-015 -1.59028e-015 -6.36111e-015 6.75868e-015 1.59028e-015 3.31043e-032 1.19271e-015 -1.59028e-015 3.18055e-015 7.95139e-016 -1.59028e-015 -2.22166 -1.00263 -5.78769 -170.249 61.8037 165.494 -6.73551 19.357 0.20504 5.69241e-007 7.84131e-008 2.82538e-007 5.1438 -2.20628 3.07785 45.1406 84.9023 -43.8615 11.8555 44.963 0.673955 -1.92853e-006 1.40872e-007 2.45889e-007 
